HIERARCHY
ROOT hip
{
	OFFSET 0.000000 0.000000 0.000000 
	CHANNELS 6 Xposition Yposition Zposition Xrotation Zrotation Yrotation
	JOINT abdomen
	{
		OFFSET 0.000000 3.402643 0.000000 
		CHANNELS 3 Xrotation Zrotation Yrotation
		JOINT chest
		{
			OFFSET 0.000000 8.438565 -0.680529 
			CHANNELS 3 Xrotation Zrotation Yrotation
			JOINT neck
			{
				OFFSET 0.000000 10.207942 -0.272212 
				CHANNELS 3 Xrotation Zrotation Yrotation
				JOINT head
				{
					OFFSET 0.000000 3.130431 0.000000 
					CHANNELS 3 Xrotation Zrotation Yrotation
					End Site
					{
						OFFSET 0.000000 3.130435 0.000000 
					}
				}
			}
			JOINT lCollar
			{
				OFFSET 3.470700 6.669187 -0.816635 
				CHANNELS 3 Yrotation Zrotation Xrotation
				JOINT lShldr
				{
					OFFSET 3.198488 0.000000 0.000000 
					CHANNELS 3 Zrotation Yrotation Xrotation
					JOINT lForeArm
					{
						OFFSET 10.139888 0.000000 0.000000 
						CHANNELS 3 Yrotation Zrotation Xrotation
						JOINT lHand
						{
							OFFSET 8.370511 0.000000 0.000000 
							CHANNELS 3 Zrotation Yrotation Xrotation
							End Site
							{
								OFFSET 4.083176 0.000000 0.000000 
							}
						}
					}
				}
			}
			JOINT rCollar
			{
				OFFSET -3.470700 6.669187 -0.816635 
				CHANNELS 3 Yrotation Zrotation Xrotation
				JOINT rShldr
				{
					OFFSET -3.198488 0.000000 0.000000 
					CHANNELS 3 Zrotation Yrotation Xrotation
					JOINT rForeArm
					{
						OFFSET -10.139888 0.000000 0.000000 
						CHANNELS 3 Yrotation Zrotation Xrotation
						JOINT rHand
						{
							OFFSET -8.370511 0.000000 0.000000 
							CHANNELS 3 Zrotation Yrotation Xrotation
							End Site
							{
								OFFSET -4.083176 0.000000 0.000000 
							}
						}
					}
				}
			}
		}
	}
	JOINT lThigh
	{
		OFFSET 5.308129 -1.633274 1.361059 
		CHANNELS 3 Xrotation Zrotation Yrotation
		JOINT lShin
		{
			OFFSET -2.041588 -20.007561 0.000000 
			CHANNELS 3 Xrotation Zrotation Yrotation
			JOINT lFoot
			{
				OFFSET 0.000000 -19.190928 -1.224953 
				CHANNELS 3 Xrotation Yrotation Zrotation
				End Site
				{
					OFFSET 0.000000 -2.449906 4.627600 
				}
			}
		}
	}
	JOINT rThigh
	{
		OFFSET -5.308129 -1.633274 1.361059 
		CHANNELS 3 Xrotation Zrotation Yrotation
		JOINT rShin
		{
			OFFSET 2.041588 -20.007561 0.000000 
			CHANNELS 3 Xrotation Zrotation Yrotation
			JOINT rFoot
			{
				OFFSET 0.000000 -19.190928 -1.224953 
				CHANNELS 3 Xrotation Yrotation Zrotation
				End Site
				{
					OFFSET 0.000000 -2.449906 4.627600 
				}
			}
		}
	}
}
MOTION
Frames: 8
Frame Time: 0.033333
-0.515889 44.715858 0.897244 16.457172 -4.492181 0.097356 0.000000 0.000000 0.000000 -4.217192 2.161530 6.997501 20.668419 6.503762 0.383939 -23.821888 -4.166369 -2.369803 -32.045227 30.000000 24.989912 -103.573654 -21.229158 5.013051 -40.365261 -0.125889 77.910469 -9.478227 18.419445 -61.654602 1.016061 -18.868860 24.803200 69.161987 -3.225610 72.795441 44.380531 -25.559982 11.377296 34.718822 -22.287447 -79.835243 -34.109680 1.025381 14.260100 68.733749 24.652542 2.707765 -18.861328 -14.063467 -7.612524 -30.816874 1.835413 2.872063 64.239166 -1.655341 4.647962 -19.653044 1.090313 19.672419 
-0.634840 48.223454 1.660963 18.589458 -5.106203 1.254599 0.000000 0.000000 0.000000 -8.643240 1.609368 6.897283 25.519932 9.208546 0.565094 -20.154854 -3.839190 -3.807945 -34.690701 29.993160 24.991959 -108.384163 -15.178400 7.258095 -39.061337 -2.915149 72.782043 -3.721026 22.983219 -60.454052 -2.417816 -16.805273 23.759640 68.206154 -10.979699 73.842583 46.619129 -25.390215 11.270532 33.153454 -24.485741 -79.322777 -29.121870 3.638349 15.834407 52.491837 18.674858 1.908200 4.122374 -18.928633 10.260649 -24.825970 1.376120 2.468670 47.479107 -1.338621 3.109417 0.968359 4.212161 23.523775 
-0.406107 51.743057 0.894399 21.770840 -5.407715 1.725823 0.000000 0.000000 0.000000 -7.901236 2.432522 7.076758 25.195915 9.032774 0.565069 -22.241436 -5.281620 -5.129727 -38.188366 29.995960 24.993288 -104.703865 -16.070162 5.542521 -41.497612 -3.966542 69.570930 -10.948959 23.421568 -62.767815 -0.266834 -15.230273 24.482826 68.173096 -8.893614 73.336571 42.621487 -24.153233 -1.580077 33.379650 -24.539549 -79.508255 -37.403194 3.219447 14.288231 52.784527 15.442822 1.161298 19.904064 -21.910765 21.246628 -34.024872 -0.645014 2.306163 49.995735 2.203331 4.088142 13.657648 6.183900 18.579762 
-0.163765 54.346889 0.174801 20.591675 -5.153452 1.892056 0.000000 0.000000 0.000000 -1.994392 3.158620 7.188835 24.835777 7.656013 0.454322 -24.050867 -5.369241 -5.120921 -39.555176 27.764059 24.995134 -101.764046 -19.730078 4.158769 -40.505535 -0.343670 62.727386 -9.942039 23.622355 -62.590317 3.237800 -15.062992 24.992691 68.555840 -3.283048 72.384163 37.237885 -25.147272 -9.180300 34.952103 -23.562315 -80.026619 -45.862797 1.990661 12.215633 66.322670 16.203951 0.801817 25.202898 -24.041264 18.477585 -43.374672 -2.665776 2.182861 65.012527 4.307389 5.963645 15.063878 6.539127 15.925980 
-0.006389 56.072075 -0.503780 17.006573 -4.861491 1.557906 0.000000 0.000000 0.000000 6.904529 3.759969 7.115628 23.379320 5.605390 0.305102 -25.428879 -4.539323 -4.076013 -39.130661 26.635736 24.986189 -97.819168 -25.563606 2.345291 -37.488430 4.208929 57.484348 -8.681420 20.859119 -61.902256 7.547789 -16.052677 24.992306 68.215302 4.591693 70.539566 31.414253 -26.505934 -13.649411 35.889030 -22.626047 -80.353897 -54.851540 1.259856 9.905334 86.570068 16.571737 0.462673 23.901970 -23.515665 15.665521 -52.713684 -3.652343 2.430984 84.653267 4.169942 7.591344 11.723812 5.594730 14.286087 
0.039719 57.080811 -1.228913 13.801485 -4.843002 1.008864 0.000000 0.000000 0.000000 15.745736 4.043680 6.804566 20.265779 3.662091 0.186416 -26.625673 -3.579898 -2.740011 -37.974834 26.697008 24.992275 -91.937599 -32.162498 -0.318632 -33.483612 7.328777 51.655155 -7.662147 17.872826 -61.322441 11.783333 -17.583382 24.996075 65.983093 12.918799 67.546951 26.745171 -27.815657 -16.090809 35.868252 -21.396921 -80.450142 -65.613503 1.308821 7.015134 107.264923 14.695661 0.102699 20.936462 -20.851555 11.983079 -63.522732 -3.837603 3.030556 103.516769 3.203719 8.607389 8.375978 3.572602 11.942418 
-0.004435 57.566418 -2.029840 13.087613 -5.087754 0.420865 0.000000 0.000000 0.000000 22.049026 3.978864 6.421915 15.727218 2.431636 0.107739 -28.123911 -2.996727 -1.702000 -37.019711 27.474474 24.989679 -84.353203 -37.900806 -3.872226 -29.562298 8.336677 42.525585 -4.975424 17.252310 -60.821194 15.258153 -18.996431 24.998623 61.620178 19.797785 63.703194 23.985907 -29.286629 -18.332186 34.813656 -19.861814 -80.355789 -78.638390 2.059936 3.395902 124.183838 11.585134 -0.140633 18.993443 -17.992775 6.137011 -76.729057 -3.936440 3.813968 118.411659 2.818018 9.145074 7.783606 1.973993 9.237287 
-0.092944 57.726364 -2.838368 15.510944 -5.419825 -0.343958 0.000000 0.000000 0.000000 24.732227 3.592575 6.145191 10.638096 1.953122 0.097932 -30.115543 -2.665539 -1.085536 -36.356411 28.305799 24.993450 -76.456314 -41.976894 -7.705291 -26.339798 8.482239 32.771664 -1.265924 16.013109 -60.215015 17.958044 -19.970026 24.993843 56.427692 24.561462 59.870644 22.364752 -30.241135 -23.326204 32.303150 -19.593250 -79.948242 -93.062859 3.476108 -0.674314 134.655777 8.645025 -0.354624 19.196236 -15.975327 3.154932 -91.388680 -4.287622 4.528549 126.823265 3.804894 9.540031 10.829786 2.656469 8.648170 
